<?xml version="1.0" encoding="UTF-8" standalone="no"?>
<!-- Created with Inkscape (http://www.inkscape.org/) -->

<svg
   xmlns:dc="http://purl.org/dc/elements/1.1/"
   xmlns:cc="http://creativecommons.org/ns#"
   xmlns:rdf="http://www.w3.org/1999/02/22-rdf-syntax-ns#"
   xmlns:svg="http://www.w3.org/2000/svg"
   xmlns="http://www.w3.org/2000/svg"
   xmlns:sodipodi="http://sodipodi.sourceforge.net/DTD/sodipodi-0.dtd"
   xmlns:inkscape="http://www.inkscape.org/namespaces/inkscape"
   width="76.582291mm"
   height="76.582291mm"
   viewBox="0 0 76.582291 76.582291"
   version="1.1"
   id="svg8"
   inkscape:version="0.92.5 (2060ec1f9f, 2020-04-08)"
   sodipodi:docname="mdne-logo.svg">
  <defs
     id="defs2" />
  <sodipodi:namedview
     id="base"
     pagecolor="#ffffff"
     bordercolor="#666666"
     borderopacity="1.0"
     inkscape:pageopacity="0.0"
     inkscape:pageshadow="2"
     inkscape:zoom="8"
     inkscape:cx="95.56681"
     inkscape:cy="191.32475"
     inkscape:document-units="mm"
     inkscape:current-layer="layer1"
     showgrid="false"
     inkscape:window-width="3840"
     inkscape:window-height="2068"
     inkscape:window-x="-12"
     inkscape:window-y="-12"
     inkscape:window-maximized="1"
     fit-margin-left="3.3"
     fit-margin-top="3.3"
     fit-margin-bottom="3.3"
     fit-margin-right="3.3" />
  <metadata
     id="metadata5">
    <rdf:RDF>
      <cc:Work
         rdf:about="">
        <dc:format>image/svg+xml</dc:format>
        <dc:type
           rdf:resource="http://purl.org/dc/dcmitype/StillImage" />
        <dc:title />
      </cc:Work>
    </rdf:RDF>
  </metadata>
  <g
     inkscape:label="Layer 1"
     inkscape:groupmode="layer"
     id="layer1"
     transform="translate(-0.8010412,-0.2770416)">
    <rect
       style="fill:#ffffff;fill-opacity:1;stroke:none;stroke-width:0.76969504;stroke-linecap:square;stroke-linejoin:miter;stroke-miterlimit:4;stroke-dasharray:none;stroke-opacity:1"
       id="rect822-2"
       width="36.975517"
       height="29.56719"
       x="8.7054701"
       y="3.5697486" />
    <rect
       style="fill:#ffffff;fill-opacity:1;stroke:none;stroke-width:1.17142045;stroke-linecap:square;stroke-linejoin:miter;stroke-miterlimit:4;stroke-dasharray:none;stroke-opacity:1"
       id="rect822"
       width="61.647915"
       height="41.076565"
       x="4.0421872"
       y="10.250478" />
    <path
       style="fill:#000000;fill-opacity:1;stroke:none;stroke-width:0.5;stroke-linecap:square;stroke-linejoin:miter;stroke-miterlimit:4;stroke-dasharray:none;stroke-opacity:1"
       d="m 4.8338127,3.5770416 c -0.4058788,0 -0.7327715,0.3268927 -0.7327715,0.7327715 V 26.368932 H 19.814809 v -2.269111 h -7.682732 c -0.256202,0 -0.462505,-0.206304 -0.462505,-0.462505 V 18.97662 c 0,-0.256202 0.206303,-0.461989 0.462505,-0.461989 h 7.682732 V 3.5770416 Z m 20.5667023,0 V 18.514631 h 2.56005 v -7.392313 c 0,-0.256201 0.205788,-0.462505 0.461989,-0.462505 h 4.660696 c 0.256202,0 0.462505,0.206304 0.462505,0.462505 v 7.392313 h 15.712221 c 0.256196,0 0.461986,0.205787 0.461986,0.461989 v 4.660696 c 0,0.256201 -0.20579,0.462505 -0.461986,0.462505 H 33.545755 v 2.269111 h 7.566464 c 0.256199,0 0.462503,0.206304 0.462503,0.462505 v 4.660696 c 0,0.256202 -0.206304,0.461987 -0.462503,0.461987 h -7.566464 v 16.294097 c 0,0.256201 -0.206303,0.462505 -0.462505,0.462505 h -4.660696 c -0.256201,0 -0.461989,-0.206304 -0.461989,-0.462505 V 31.95412 h -2.56005 v 8.439795 c 0,0.256202 -0.206303,0.461989 -0.462502,0.461989 h -4.660699 c -0.256199,0 -0.462502,-0.205787 -0.462505,-0.461989 V 31.95412 H 4.1010412 v 40.872441 c 0,0.405879 0.3268927,0.732771 0.7327715,0.732771 H 73.350561 c 0.405878,0 0.732771,-0.326892 0.732771,-0.732771 V 4.3098131 c 0,-0.4058788 -0.326893,-0.7327715 -0.732771,-0.7327715 z m 0,20.5227794 v 2.269111 h 2.56005 v -2.269111 z"
       id="rect830"
       inkscape:connector-curvature="0" />
    <g
       id="g5284"
       transform="matrix(1.3723853,0,0,1.3723853,-41.139026,-94.832666)">
      <path
         d="m 52.076754,120.8149 q 0,0.21514 -0.167273,0.35857 -0.167272,0.16136 -0.439089,0.16136 -0.376362,0 -0.376362,-0.32272 0,-3.62164 -0.271817,-5.54003 -0.271818,-1.93632 -0.940906,-1.93632 -1.129088,0 -3.303626,6.7592 v 0.0179 q 0,0.21515 -0.167271,0.37651 -0.167273,0.14344 -0.43909,0.14344 -0.376362,0 -0.376362,-0.32273 0,-0.71715 0.08364,-2.22318 0.08364,-1.68532 0.08364,-2.65348 0,-1.34467 -0.104545,-1.90046 -0.08364,-0.57373 -0.397272,-0.57373 -0.710907,0 -1.798175,2.24111 -1.08727,2.22319 -2.279083,5.25317 l -0.188181,0.46616 q -0.08364,0.17928 -0.250908,0.30479 -0.146364,0.1255 -0.334544,0.1255 -0.250909,0 -0.334544,-0.0359 -0.08364,-0.0359 -0.104547,-0.21514 -0.104545,-0.87852 -0.167271,-2.34869 -0.04182,-0.37651 -0.08364,-1.2371 -0.20909,-3.02998 -0.376363,-4.08779 -0.167272,-1.07573 -0.167272,-1.20123 0,-0.14343 0.167272,-0.34065 0.167273,-0.19722 0.313636,-0.19722 0.334544,0 0.543634,0.41237 0.104546,0.19721 0.229999,1.57774 0.125454,1.38053 0.209091,3.42442 l 0.104545,2.74312 q 1.149996,-3.04791 2.383628,-5.5221 1.233632,-2.49212 2.258174,-2.49212 0.689997,0 0.940906,0.86059 0.250907,0.86059 0.250907,2.49211 0,0.86059 -0.04181,2.47419 l -0.02091,0.82473 q 0.85727,-2.56383 1.693631,-4.30293 0.857269,-1.73911 1.714539,-1.73911 2.153629,0 2.153629,8.17559 z"
         style="font-style:normal;font-variant:normal;font-weight:normal;font-stretch:normal;font-size:25.39999962px;line-height:1.25;font-family:'Ink Free';-inkscape-font-specification:'Ink Free';letter-spacing:0px;word-spacing:0px;fill:#ffffff;fill-opacity:1;stroke:none;stroke-width:0.20168447"
         id="path951"
         inkscape:connector-curvature="0" />
      <path
         d="m 64.444019,120.00277 q 0,0.23284 0.268738,0.38809 0.26874,0.17463 0.644973,0.17463 0.268739,0 0.456856,-0.097 0.188117,-0.0776 0.188117,-0.23285 0,-0.79556 -0.161243,-2.46432 -0.161243,-1.78519 -0.161243,-2.96885 0,-1.14485 0.107493,-1.86279 0.08062,-0.73737 0.429983,-0.73737 0.913711,0 2.015541,1.64936 1.074954,1.62995 2.472396,4.30774 l 0.403108,0.77616 q 0.107492,0.19404 0.376233,0.31046 0.241866,0.11642 0.510605,0.11642 0.322486,0 0.429981,-0.0389 0.107493,-0.0389 0.13437,-0.23285 l 0.214991,-1.59114 0.403107,-2.7942 q 0.188119,-1.66877 0.456857,-2.91064 0.08062,-0.29105 0.08062,-0.44628 0,-0.29107 -0.349359,-0.4657 -0.349361,-0.19405 -0.806217,-0.19405 -0.268738,0 -0.376234,0.9314 -0.13437,0.9314 -0.26874,3.00766 l -0.107492,1.02842 q -0.214991,1.95981 -0.241865,2.48373 -0.08062,-0.11643 -0.134369,-0.25226 -0.08062,-0.15523 -0.188117,-0.32987 -1.45119,-2.71658 -2.714261,-4.52118 -1.289945,-1.82398 -2.472397,-1.82398 -0.83309,0 -1.128703,1.02842 -0.322485,1.00901 -0.403108,2.60016 -0.08062,1.76578 -0.08062,5.16151 z"
         style="font-style:normal;font-variant:normal;font-weight:normal;font-stretch:normal;font-size:25.39999962px;line-height:1.25;font-family:'Ink Free';-inkscape-font-specification:'Ink Free';letter-spacing:0px;word-spacing:0px;fill:#ffffff;fill-opacity:1;stroke:none;stroke-width:0.23787104"
         id="path955"
         inkscape:connector-curvature="0" />
      <path
         d="m 82.369098,115.06727 q 0.147884,0 0.147884,0.29511 0,0.35414 -0.570421,1.55428 -0.549293,1.20014 -1.690143,2.22321 -1.119714,1.02307 -2.767601,1.02307 -1.352111,0 -2.260564,-0.78698 -0.908447,-0.78697 -0.908447,-2.41995 0,-1.5346 0.760564,-3.02987 0.760561,-1.51493 1.98591,-2.4593 1.225356,-0.96405 2.535211,-0.96405 0.78169,0 1.309862,0.33447 0.549292,0.31479 0.549292,0.9247 0,0.6886 -0.845067,1.33786 -0.823947,0.64926 -2.15493,1.14112 -1.330983,0.49186 -2.746479,0.70828 -0.253519,0.90502 -0.253519,1.7707 0,1.14111 0.570422,1.7707 0.591549,0.62958 1.669014,0.62958 1.626758,0 2.640838,-1.08209 1.014087,-1.0821 1.690143,-2.43964 0.04229,-0.0787 0.147891,-0.29511 0.105634,-0.23609 0.19014,-0.23609 z m -1.859155,-3.08889 q 0,-0.31479 -0.35916,-0.49186 -0.338024,-0.17707 -0.802811,-0.17707 -0.802818,0 -1.542251,0.49185 -0.739441,0.49187 -1.246477,1.18047 -0.485916,0.68861 -0.633807,1.21982 0.971831,-0.0984 2.049296,-0.51154 1.077465,-0.41316 1.79577,-0.90502 0.73944,-0.49186 0.73944,-0.80665 z"
         style="font-style:normal;font-variant:normal;font-weight:normal;font-stretch:normal;font-size:25.39999962px;line-height:1.25;font-family:'Ink Free';-inkscape-font-specification:'Ink Free';letter-spacing:0px;word-spacing:0px;fill:#ffffff;fill-opacity:1;stroke:none;stroke-width:0.2123715"
         id="path957"
         inkscape:connector-curvature="0" />
      <g
         transform="matrix(0,0.58409811,-1.1653392,0,176.02474,78.639534)"
         id="text5107"
         style="font-style:normal;font-variant:normal;font-weight:normal;font-stretch:normal;font-size:25.39999962px;line-height:1.25;font-family:'Ink Free';-inkscape-font-specification:'Ink Free';letter-spacing:0px;word-spacing:0px;fill:#ffffff;fill-opacity:1;stroke:none;stroke-width:0.26458332"
         aria-label="→">
        <path
           sodipodi:nodetypes="cccccccccccscc"
           inkscape:connector-curvature="0"
           id="path5109"
           style="font-style:normal;font-variant:normal;font-weight:normal;font-stretch:normal;font-family:'Ink Free';-inkscape-font-specification:'Ink Free';fill:#ffffff;fill-opacity:1;stroke-width:0.26206845"
           d="m 67.648125,96.540903 c 1.078869,1.19889 2.011725,2.11253 2.79857,2.74092 0.786844,0.62012 1.529073,1.083137 2.226688,1.389057 v 0.55811 c -0.803068,0.39687 -1.581801,0.90537 -2.336198,1.52549 -0.754396,0.61185 -1.654806,1.51308 -2.701228,2.70371 h -0.936913 c 0.762509,-1.66191 1.561521,-2.93936 2.397037,-3.83233 l -13.032069,0.11396 0.108806,-0.20264 13.119665,-1.12381 c -0.616496,-0.802021 -1.242825,-1.437467 -1.486179,-1.826077 -0.243354,-0.38861 -0.604329,-1.07074 -1.082924,-2.04639 z" />
      </g>
    </g>
  </g>
</svg>
