<?xml version="1.0" encoding="UTF-8" standalone="no"?>
<!-- Created with Inkscape (http://www.inkscape.org/) -->

<svg
   xmlns:dc="http://purl.org/dc/elements/1.1/"
   xmlns:cc="http://creativecommons.org/ns#"
   xmlns:rdf="http://www.w3.org/1999/02/22-rdf-syntax-ns#"
   xmlns:svg="http://www.w3.org/2000/svg"
   xmlns="http://www.w3.org/2000/svg"
   xmlns:sodipodi="http://sodipodi.sourceforge.net/DTD/sodipodi-0.dtd"
   xmlns:inkscape="http://www.inkscape.org/namespaces/inkscape"
   width="112.91875mm"
   height="116.6264mm"
   viewBox="0 0 112.91875 116.62639"
   version="1.1"
   id="svg8"
   inkscape:version="0.92.3 (2405546, 2018-03-11)"
   sodipodi:docname="logo.svg">
  <defs
     id="defs2" />
  <sodipodi:namedview
     id="base"
     pagecolor="#ffffff"
     bordercolor="#666666"
     borderopacity="1.0"
     inkscape:pageopacity="0.0"
     inkscape:pageshadow="2"
     inkscape:zoom="1"
     inkscape:cx="-193.20867"
     inkscape:cy="-316.55635"
     inkscape:document-units="mm"
     inkscape:current-layer="layer1"
     showgrid="false"
     inkscape:window-width="3840"
     inkscape:window-height="2068"
     inkscape:window-x="-12"
     inkscape:window-y="-12"
     inkscape:window-maximized="1"
     inkscape:measure-start="0,0"
     inkscape:measure-end="0,0"
     fit-margin-top="2"
     fit-margin-left="2"
     fit-margin-right="2"
     fit-margin-bottom="2" />
  <metadata
     id="metadata5">
    <rdf:RDF>
      <cc:Work
         rdf:about="">
        <dc:format>image/svg+xml</dc:format>
        <dc:type
           rdf:resource="http://purl.org/dc/dcmitype/StillImage" />
        <dc:title></dc:title>
      </cc:Work>
    </rdf:RDF>
  </metadata>
  <g
     inkscape:label="Layer 1"
     inkscape:groupmode="layer"
     id="layer1"
     transform="translate(-0.55833599,0.36248581)">
    <g
       id="g925"
       transform="translate(-21.695833,-34.660417)">
      <path
         sodipodi:nodetypes="cccccccccccccc"
         d="m 37.463345,49.498824 h 14.783593 l 5.705078,22.125781 5.680273,-22.125781 H 78.366274 V 85.862495 H 69.188539 V 66.597522 l -7.118945,19.264973 h -8.30957 l -7.094141,-19.79414 v 19.79414 h -9.202538 z"
         style="font-style:normal;font-variant:normal;font-weight:900;font-stretch:normal;font-size:medium;line-height:1.25;font-family:Arial;-inkscape-font-specification:'Arial Heavy';letter-spacing:0px;word-spacing:0px;fill:#000000;fill-opacity:1;stroke:none;stroke-width:0.26458332"
         id="path823"
         inkscape:connector-curvature="0" />
      <path
         d="M 37.430272,91.832157 H 49.838525 L 66.030856,111.94876 V 91.832157 H 78.556443 V 128.19583 H 66.030856 L 49.926527,108.22806 v 19.96777 H 37.430272 Z"
         style="font-style:normal;font-variant:normal;font-weight:900;font-stretch:normal;font-size:medium;line-height:1.25;font-family:Arial;-inkscape-font-specification:'Arial Heavy';letter-spacing:0px;word-spacing:0px;fill:#000000;fill-opacity:1;stroke:none;stroke-width:0.28772706"
         id="path825"
         inkscape:connector-curvature="0" />
      <path
         d="M 119.64839,66.56769 100.46612,86.20901 79.797578,67.05981 Z M 92.339577,50.408327 H 106.3625 V 76.60208 H 92.339577 Z"
         style="fill:#000000;fill-opacity:0.99322031;stroke:none;stroke-width:1.59457791;stroke-miterlimit:4;stroke-dasharray:none;stroke-opacity:0.66779659"
         id="rect830-0"
         inkscape:connector-curvature="0" />
      <rect
         y="41.690727"
         x="29.646965"
         height="94.164398"
         width="98.133163"
         id="rect849"
         style="fill:none;fill-opacity:0.99322031;stroke:#000000;stroke-width:10.78559208;stroke-linejoin:round;stroke-miterlimit:4;stroke-dasharray:none;stroke-opacity:1" />
      <g
         transform="translate(26.70638,-92.075)"
         id="text858"
         style="font-style:normal;font-variant:normal;font-weight:900;font-stretch:normal;font-size:50.79999924px;line-height:1.25;font-family:Arial;-inkscape-font-specification:'Arial Heavy';letter-spacing:0px;word-spacing:0px;fill:#000000;fill-opacity:1;stroke:none;stroke-width:0.26458332"
         aria-label="E">
        <path
           inkscape:connector-curvature="0"
           id="path860"
           style="stroke-width:0.26458332"
           d="m 54.495898,183.90716 h 30.11289 v 7.76386 H 65.757226 v 5.7795 H 83.24453 v 7.4166 H 65.757226 v 7.16855 h 19.397265 v 8.23516 H 54.495898 Z" />
      </g>
    </g>
    <g
       aria-label="Markdown Neo Edit"
       style="font-style:normal;font-variant:normal;font-weight:normal;font-stretch:normal;font-size:6.3499999px;line-height:1.25;font-family:Arial;-inkscape-font-specification:Arial;letter-spacing:0px;word-spacing:0px;fill:#110000;fill-opacity:1;stroke:none;stroke-width:0.26458332"
       id="text886"
       transform="translate(3.7041667,-66.410417)">
      <path
         d="m 19.890603,180.58334 v -5.55556 h 1.106564 l 1.314993,3.93361 q 0.181902,0.5495 0.265273,0.82235 0.09474,-0.30317 0.295589,-0.89056 l 1.330151,-3.8654 h 0.989087 v 5.55556 h -0.708656 v -4.64984 l -1.614372,4.64984 h -0.66318 l -1.606793,-4.72942 v 4.72942 z"
         style="font-size:7.76111126px;fill:#110000;fill-opacity:1;stroke-width:0.26458332"
         id="path888"
         inkscape:connector-curvature="0" />
      <path
         d="m 28.925022,180.08691 q -0.378961,0.32211 -0.731394,0.45475 -0.348644,0.13263 -0.750342,0.13263 -0.663181,0 -1.019404,-0.32211 -0.356223,-0.32591 -0.356223,-0.82993 0,-0.29559 0.132637,-0.53812 0.136425,-0.24632 0.352433,-0.39412 0.219797,-0.14779 0.492648,-0.22359 0.20085,-0.0531 0.606337,-0.10231 0.826134,-0.0985 1.216464,-0.23496 0.0038,-0.14022 0.0038,-0.17811 0,-0.41686 -0.19327,-0.58739 -0.261482,-0.23117 -0.776869,-0.23117 -0.48128,0 -0.712446,0.17054 -0.227376,0.16674 -0.337274,0.59496 l -0.666971,-0.0909 q 0.09095,-0.42822 0.299379,-0.6897 0.208428,-0.26528 0.602547,-0.40549 0.394119,-0.14401 0.913295,-0.14401 0.515386,0 0.837503,0.12127 0.322116,0.12127 0.4737,0.30696 0.151585,0.1819 0.212218,0.46233 0.03411,0.17432 0.03411,0.62907 v 0.90951 q 0,0.95119 0.04169,1.20509 0.04548,0.25012 0.174322,0.48128 h -0.712446 q -0.106109,-0.21221 -0.136425,-0.49643 z m -0.05684,-1.52343 q -0.371382,0.15159 -1.114144,0.2577 -0.420647,0.0606 -0.594968,0.13642 -0.174322,0.0758 -0.269062,0.22359 -0.09474,0.144 -0.09474,0.32212 0,0.27285 0.204638,0.45475 0.208428,0.1819 0.606337,0.1819 0.394119,0 0.701077,-0.17053 0.306958,-0.17432 0.450963,-0.4737 0.109899,-0.23117 0.109899,-0.68213 z"
         style="font-size:7.76111126px;fill:#110000;fill-opacity:1;stroke-width:0.26458332"
         id="path890"
         inkscape:connector-curvature="0" />
      <path
         d="m 30.611395,180.58334 v -4.02456 h 0.613917 v 0.61013 q 0.234955,-0.42823 0.432014,-0.56465 0.20085,-0.13643 0.439595,-0.13643 0.344854,0 0.701077,0.2198 l -0.234956,0.63286 q -0.250114,-0.14779 -0.500228,-0.14779 -0.223586,0 -0.401698,0.13642 -0.178111,0.13264 -0.253903,0.37139 -0.113689,0.3638 -0.113689,0.79581 v 2.10702 z"
         style="font-size:7.76111126px;fill:#110000;fill-opacity:1;stroke-width:0.26458332"
         id="path892"
         inkscape:connector-curvature="0" />
      <path
         d="m 33.214855,180.58334 v -5.55556 h 0.682129 v 3.16811 l 1.614372,-1.63711 h 0.882978 l -1.53858,1.49311 1.693953,2.53145 h -0.841292 l -1.330151,-2.05775 -0.48128,0.46233 v 1.59542 z"
         style="font-size:7.76111126px;fill:#110000;fill-opacity:1;stroke-width:0.26458332"
         id="path894"
         inkscape:connector-curvature="0" />
      <path
         d="m 39.702659,180.58334 v -0.5078 q -0.38275,0.59875 -1.125512,0.59875 -0.48128,0 -0.886768,-0.26527 -0.401698,-0.26527 -0.625285,-0.73897 -0.219797,-0.47749 -0.219797,-1.0952 0,-0.60254 0.200849,-1.0914 0.200849,-0.49265 0.602547,-0.75413 0.401699,-0.26149 0.898137,-0.26149 0.363802,0 0.648022,0.15538 0.284221,0.15158 0.462332,0.3979 v -1.99333 h 0.678339 v 5.55556 z m -2.156285,-2.00849 q 0,0.77308 0.325906,1.15583 0.325906,0.38275 0.76929,0.38275 0.447173,0 0.757921,-0.3638 0.314537,-0.36759 0.314537,-1.11793 0,-0.82614 -0.318327,-1.21268 -0.318327,-0.38654 -0.784448,-0.38654 -0.454753,0 -0.761711,0.37138 -0.303168,0.37139 -0.303168,1.17099 z"
         style="font-size:7.76111126px;fill:#110000;fill-opacity:1;stroke-width:0.26458332"
         id="path896"
         inkscape:connector-curvature="0" />
      <path
         d="m 41.157866,178.57106 q 0,-1.11793 0.621496,-1.65605 0.519175,-0.44718 1.265728,-0.44718 0.829923,0 1.356678,0.54571 0.526755,0.54191 0.526755,1.50068 0,0.77687 -0.234955,1.22404 -0.231166,0.44339 -0.678339,0.68971 -0.443384,0.24632 -0.970139,0.24632 -0.845082,0 -1.368048,-0.54191 -0.519176,-0.54191 -0.519176,-1.56132 z m 0.701077,0 q 0,0.77308 0.337275,1.15962 0.337275,0.38275 0.848872,0.38275 0.507807,0 0.845082,-0.38654 0.337274,-0.38654 0.337274,-1.17856 0,-0.74656 -0.341064,-1.12931 -0.337275,-0.38654 -0.841292,-0.38654 -0.511597,0 -0.848872,0.38275 -0.337275,0.38275 -0.337275,1.15583 z"
         style="font-size:7.76111126px;fill:#110000;fill-opacity:1;stroke-width:0.26458332"
         id="path898"
         inkscape:connector-curvature="0" />
      <path
         d="m 46.474683,180.58334 -1.231622,-4.02456 h 0.704867 l 0.640443,2.32303 0.238745,0.86403 q 0.01516,-0.0644 0.208428,-0.82992 l 0.640444,-2.35714 h 0.701077 l 0.602547,2.3344 0.200849,0.76929 0.231166,-0.77687 0.689708,-2.32682 h 0.663181 l -1.258149,4.02456 h -0.708656 l -0.640443,-2.41019 -0.155374,-0.68591 -0.814765,3.0961 z"
         style="font-size:7.76111126px;fill:#110000;fill-opacity:1;stroke-width:0.26458332"
         id="path900"
         inkscape:connector-curvature="0" />
      <path
         d="m 51.340536,180.58334 v -4.02456 h 0.613916 v 0.57223 q 0.443384,-0.66318 1.280887,-0.66318 0.363802,0 0.66697,0.13264 0.306958,0.12885 0.458542,0.34106 0.151585,0.21222 0.212218,0.50402 0.0379,0.18948 0.0379,0.66318 v 2.47461 H 53.92884 v -2.44808 q 0,-0.41686 -0.07958,-0.6215 -0.07958,-0.20842 -0.284221,-0.32969 -0.200849,-0.12506 -0.4737,-0.12506 -0.435805,0 -0.754132,0.27664 -0.314537,0.27664 -0.314537,1.04972 v 2.19797 z"
         style="font-size:7.76111126px;fill:#110000;fill-opacity:1;stroke-width:0.26458332"
         id="path902"
         inkscape:connector-curvature="0" />
      <path
         d="m 57.892765,180.58334 v -5.55556 h 0.754131 l 2.917996,4.36184 v -4.36184 h 0.704866 v 5.55556 h -0.754131 l -2.917996,-4.36562 v 4.36562 z"
         style="font-size:7.76111126px;fill:#110000;fill-opacity:1;stroke-width:0.26458332"
         id="path904"
         inkscape:connector-curvature="0" />
      <path
         d="m 66.176842,179.2873 0.704866,0.0872 q -0.166742,0.61771 -0.617705,0.95877 -0.450963,0.34106 -1.15204,0.34106 -0.882978,0 -1.402154,-0.54191 -0.515387,-0.5457 -0.515387,-1.52721 0,-1.01561 0.522966,-1.57648 0.522965,-0.56086 1.356679,-0.56086 0.807185,0 1.318782,0.5495 0.511597,0.54949 0.511597,1.54615 0,0.0606 -0.0038,0.18191 h -3.001367 q 0.0379,0.66318 0.375171,1.01561 0.337275,0.35243 0.841292,0.35243 0.375171,0 0.640443,-0.19706 0.265273,-0.19706 0.420647,-0.62907 z m -2.239657,-1.10278 h 2.247236 q -0.04547,-0.5078 -0.257693,-0.76171 -0.325906,-0.39412 -0.845082,-0.39412 -0.469911,0 -0.792028,0.31454 -0.318327,0.31454 -0.352433,0.84129 z"
         style="font-size:7.76111126px;fill:#110000;fill-opacity:1;stroke-width:0.26458332"
         id="path906"
         inkscape:connector-curvature="0" />
      <path
         d="m 67.488044,178.57106 q 0,-1.11793 0.621495,-1.65605 0.519176,-0.44718 1.265728,-0.44718 0.829924,0 1.356679,0.54571 0.526755,0.54191 0.526755,1.50068 0,0.77687 -0.234956,1.22404 -0.231166,0.44339 -0.678339,0.68971 -0.443384,0.24632 -0.970139,0.24632 -0.845082,0 -1.368047,-0.54191 -0.519176,-0.54191 -0.519176,-1.56132 z m 0.701077,0 q 0,0.77308 0.337274,1.15962 0.337275,0.38275 0.848872,0.38275 0.507807,0 0.845082,-0.38654 0.337275,-0.38654 0.337275,-1.17856 0,-0.74656 -0.341065,-1.12931 -0.337275,-0.38654 -0.841292,-0.38654 -0.511597,0 -0.848872,0.38275 -0.337274,0.38275 -0.337274,1.15583 z"
         style="font-size:7.76111126px;fill:#110000;fill-opacity:1;stroke-width:0.26458332"
         id="path908"
         inkscape:connector-curvature="0" />
      <path
         d="m 74.316911,180.58334 v -5.55556 h 4.016982 v 0.6556 h -3.281798 v 1.70154 h 3.073369 v 0.65181 h -3.073369 v 1.89101 h 3.410644 v 0.6556 z"
         style="font-size:7.76111126px;fill:#110000;fill-opacity:1;stroke-width:0.26458332"
         id="path910"
         inkscape:connector-curvature="0" />
      <path
         d="m 82.009811,180.58334 v -0.5078 q -0.38275,0.59875 -1.125513,0.59875 -0.481279,0 -0.886767,-0.26527 -0.401698,-0.26527 -0.625285,-0.73897 -0.219797,-0.47749 -0.219797,-1.0952 0,-0.60254 0.200849,-1.0914 0.200849,-0.49265 0.602547,-0.75413 0.401698,-0.26149 0.898137,-0.26149 0.363802,0 0.648022,0.15538 0.28422,0.15158 0.462332,0.3979 v -1.99333 h 0.678339 v 5.55556 z m -2.156285,-2.00849 q 0,0.77308 0.325906,1.15583 0.325906,0.38275 0.76929,0.38275 0.447173,0 0.757921,-0.3638 0.314537,-0.36759 0.314537,-1.11793 0,-0.82614 -0.318327,-1.21268 -0.318327,-0.38654 -0.784448,-0.38654 -0.454753,0 -0.761711,0.37138 -0.303168,0.37139 -0.303168,1.17099 z"
         style="font-size:7.76111126px;fill:#110000;fill-opacity:1;stroke-width:0.26458332"
         id="path912"
         inkscape:connector-curvature="0" />
      <path
         d="m 83.722711,175.81223 v -0.78445 h 0.682129 v 0.78445 z m 0,4.77111 v -4.02456 h 0.682129 v 4.02456 z"
         style="font-size:7.76111126px;fill:#110000;fill-opacity:1;stroke-width:0.26458332"
         id="path914"
         inkscape:connector-curvature="0" />
      <path
         d="m 86.936298,179.97322 0.09853,0.60254 q -0.28801,0.0606 -0.515386,0.0606 -0.371382,0 -0.57602,-0.11748 -0.204639,-0.11748 -0.28801,-0.30696 -0.08337,-0.19327 -0.08337,-0.80718 v -2.31545 h -0.500228 v -0.53055 h 0.500228 v -0.99666 l 0.67834,-0.40928 v 1.40594 H 86.9363 v 0.53055 h -0.68592 v 2.35334 q 0,0.2918 0.03411,0.37517 0.0379,0.0834 0.117478,0.13264 0.08337,0.0493 0.234955,0.0493 0.113689,0 0.299379,-0.0265 z"
         style="font-size:7.76111126px;fill:#110000;fill-opacity:1;stroke-width:0.26458332"
         id="path916"
         inkscape:connector-curvature="0" />
    </g>
  </g>
</svg>
